<?xml version="1.0" encoding="utf-8"?>
<!-- Generator: Adobe Illustrator 25.4.1, SVG Export Plug-In . SVG Version: 6.00 Build 0)  -->
<svg version="1.1" id="Layer_2_00000145056165845410744800000008607950207359333278_"
	 xmlns="http://www.w3.org/2000/svg" xmlns:xlink="http://www.w3.org/1999/xlink" x="0px" y="0px" viewBox="0 0 400 400"
	 style="enable-background:new 0 0 400 400;" xml:space="preserve">
<style type="text/css">
	.st0{fill:#B0B0B1;}
	.st1{fill:#FFFFFF;}
	.st2{fill:#CE1141;}
</style>
<g>
	<g>
		<path class="st0" d="M257,325.1H148.5c-5.9,0-10.6-4.8-10.6-10.6V307c-35.5,6.7-62.4,16.6-62.6,16.7l-1.3,0.5L52.2,313l6-20
			l-7.7-61l-6.2-20.6h14.2c-13-6.4-17-14.6-18.3-18.6c-0.5-1.5-0.2-3.1,0.7-4.5c0.9-1.3,2.3-2.1,3.9-2.2c8.2-0.6,17.1-2.2,24.5-3.8
			c-10.6-2.7-20.5-7.7-28.2-14.6c-15.4-13.8-18.3-36.2-7.6-58.5c8.9-18.5,20.2-29.8,24.7-33.8c1.3-1.2,3.2-1.4,4.8-0.7
			c1.6,0.7,2.6,2.3,2.6,4.1c-0.7,36.3,5.7,39.4,9.5,41.2c0.4,0.2,0.7,0.3,1,0.5c3.5,1.9,27.8,2.9,56.5,2.5
			c18.7-0.3,27.3-0.1,36.9,3.2c11.3,3.8,22.1,6.1,30.4,6.3c8-0.2,15.6-1.2,30.3-5.5c9.4-2.8,18-4.2,36.8-4h0.5
			c12.6,0.2,51,0.8,55.6-2.3c0.6-0.4,1.2-0.8,1.9-1.2c4.1-2.5,9.8-6,9.1-40.9c0-1.7,1-3.3,2.5-4c1.6-0.7,3.4-0.4,4.7,0.7
			c4.5,4,15.8,15.3,24.7,33.8l0,0c10.7,22.3,7.8,44.7-7.6,58.5c-7.7,6.9-17.7,12-28.2,14.6c7.3,1.6,16.2,3.3,24.4,3.8
			c1.6,0.1,3,0.9,3.9,2.3c0.9,1.3,1.2,2.9,0.7,4.5c-1.2,3.9-5.1,11.8-17.6,18.2l20.4-0.1l-14.6,20.2l-7.2,32.5v28l6.3,21.3
			l-21.8,11.2l-1.3-0.5c-15.8-6.1-34.6-11.1-55.8-15.1v5.9C267.6,320.3,262.8,325.1,257,325.1z"/>
		<path d="M363,110.5c-8.7-18-19.6-28.9-24-32.8c-0.7-0.7-1.9-0.1-1.9,0.9c0.8,41.1-7.3,41.1-12.3,44.8c-5.1,3.7-40.2,3.1-58,2.9
			c-17.9-0.3-26.4,1-35.8,3.8c-15.6,4.6-23.4,5.5-31.3,5.7l0,0c-7.9-0.2-18.7-2.2-31.3-6.5c-9.3-3.1-18-3.3-35.8-3
			c-17.9,0.3-52.4,0.1-58-2.9c-4.7-2.5-13.1-3.7-12.3-44.7c0-1-1.2-1.6-2-0.9c-4.4,4-15.3,14.8-23.9,32.8
			c-11.1,23.1-6.3,43,6.8,54.7s30.2,16,43,16c0,0-22.1,6.8-41.2,8.1c-1.3,0.1-2.1,1.3-1.8,2.6c1.6,5.2,8.2,17.3,35.4,22.8H48.5
			l5.1,16.7l7.8,61.9l-5.5,18l18.2,9.3c0,0,28.8-10.7,67-17.5v11.4c0,4.1,3.3,7.4,7.4,7.4H257c4.1,0,7.4-3.3,7.4-7.4v-9.8
			c19.5,3.4,40.9,8.5,60.2,15.9l18.2-9.3L337,292v-28.8l7.4-33.5l11.3-15.6l-33.6,0.1c26-5.6,32.4-17.4,34-22.4
			c0.4-1.2-0.5-2.5-1.8-2.6c-19-1.3-41.2-8.1-41.2-8.1c12.8,0,29.9-4.3,43-16C369.3,153.5,374.1,133.5,363,110.5z"/>
	</g>
	<path class="st1" d="M152.7,205.6L152.7,205.6c-15,0.7-13.6-13.5-13-17.4c-2.5-1-4.7,0.4-5.3,1.8c0,0-5.7,19.5,19.7,17.6
		C154.1,207.5,153.5,206.8,152.7,205.6z"/>
	<path class="st1" d="M246.3,205.6L246.3,205.6c15,0.7,13.6-13.5,13-17.4c2.5-1,4.7,0.4,5.3,1.8c0,0,5.7,19.5-19.7,17.6
		C244.9,207.5,245.5,206.8,246.3,205.6z"/>
	<path class="st2" d="M110.3,182.3c0,0-13.5,3.9-21.3,6.7s-22.9,6.5-30.8,6.7c0,0-1.1,2.9,3.3,4.5c4.4,1.7,18.1,7.1,26.3,6
		s14.2-4.3,15.5-8.4S103.9,186.5,110.3,182.3z"/>
	<path class="st2" d="M289,182.3c0,0,13.5,3.9,21.3,6.7s22.9,6.5,30.8,6.7c0,0,1.1,2.9-3.3,4.5c-4.4,1.7-18.1,7.1-26.3,6
		c-8.2-1.1-14.2-4.3-15.5-8.4S295.5,186.5,289,182.3z"/>
	<path class="st1" d="M132.6,141.5C132.6,141.5,132.5,141.5,132.6,141.5c1.7-4.7,2.6-6,2.6-6s-30,0.9-62.7-3.6
		c-19.2-2.6-17.8-36.2-17.8-36.2s-10.4,14.5-13.2,26.5c-2.8,12-2.6,24.2,6,33.9s19.9,15.7,48.1,15.7l20.7-0.4c0,0,3.5-10,14.8-11.1
		c-0.6-7.4-0.2-14,1.2-18.2C132.4,141.8,132.5,141.7,132.6,141.5z"/>
	<path class="st1" d="M267,141.6c1.3,4.2,1.6,11.1,0.7,18.7c11.4,1.1,15.3,10.9,15.3,10.9l20.7,0.4c28.2,0,39.6-6,48.1-15.7
		s8.8-21.9,6-33.9s-13.2-26.5-13.2-26.5s1.4,33.6-17.8,36.2c-32.7,4.5-61.9,3.6-61.9,3.6S265.9,137.9,267,141.6z"/>
	<g>
		<path class="st2" d="M121.8,200.1c-1.3,6-1.2,10.7-0.3,14.5h16.4C124.4,209.3,121.8,200.1,121.8,200.1z"/>
	</g>
	<g>
		<path class="st1" d="M166.9,300.5c1.2-1,3.3-2.3,3.3-5.6c0-3.6-3.7-6-5.9-6h-11.8c-1,0-1,0.1-1,0.7v3c0,0.5,0,0.5,0.7,0.5h0.8
			c0.5,0,0.5,0.1,0.5,0.7v13.9c0,0.5-0.1,0.5-0.6,0.5h-0.8c-0.6,0-0.6,0.1-0.6,0.7v2.9c0,0.5,0.1,0.6,0.7,0.6h12.9
			c3.2,0,5.6-2.9,5.6-6.2S168.6,301.7,166.9,300.5z M159.8,293.7c0-0.8,0-0.9,0.8-0.9s4.2,0.1,4.2,3s-3.1,2.8-4.1,2.8s-1-0.1-1-0.8
			v-4.1H159.8z M159.8,307.1v-4c0-0.8,0.1-0.8,1-0.8c0.8,0,4.1,0.1,4.1,3s-3.1,2.8-4.1,2.8C159.8,308,159.8,308,159.8,307.1z"/>
		<path class="st1" d="M193.1,288.8H187c-0.7,0-0.7,0.1-0.7,0.8v2.7c0,0.6,0.1,0.6,0.8,0.6h0.6c0.6,0,0.6,0,0.6,0.6v11.6
			c0,1.2-0.6,3.5-3.6,3.5c-2.5,0-3.6-2.1-3.6-3.5v-11.7c0-0.5,0-0.5,0.4-0.5h0.6c0.9,0,0.9,0,0.9-0.6v-2.7c0-0.7-0.1-0.8-0.7-0.8
			h-8.2c-0.8,0-0.9,0-0.9,0.9v2.7c0,0.6,0,0.6,0.7,0.6h0.7c0.5,0,0.5,0,0.5,0.5v12c0,3.1,2.9,7.6,9,7.6s7.7-4.5,7.7-7.6v-12
			c0-0.5,0-0.5,0.5-0.5h0.9c0.7,0,0.7,0,0.7-0.6v-2.8C194.1,288.8,194.1,288.8,193.1,288.8z"/>
		<path class="st1" d="M234.2,304.1H232c-0.7,0-0.7,0.1-0.7,0.9v2.4c0,0.9-0.1,1-0.7,1h-3.4c-1,0-1-0.1-1-0.7v-13.6c0-0.9,0-1,0.5-1
			h0.8c0.6,0,0.7-0.1,0.7-0.6v-2.7c0-0.8,0-0.9-0.7-0.9h-8.1c-1,0-1,0.1-1,0.8v2.8c0,0.6,0.1,0.6,0.7,0.6h0.6c0.6,0,0.6,0,0.6,0.9
			v13.7c0,0.6,0,0.6-0.5,0.6H219c-0.6,0-0.6,0.1-0.6,0.9v2.8c0,0.6,0.1,0.6,0.7,0.6h15.1c0.7,0,0.7,0,0.7-0.9v-6.8
			C234.9,304.1,234.9,304.1,234.2,304.1z"/>
		<path class="st1" d="M248.2,298.5c-2.7-1.3-4.2-2.5-4.2-3.9c0-0.9,0.6-1.6,1.6-1.6c2.4,0,4.1,1.9,4.5,3.2c0.1,0.5,0.2,0.5,0.7,0.5
			h1.5c0.5,0,0.5,0,0.5-1v-6.5c0-0.5,0-0.5-1-0.5h-1c-0.3,0-0.3,0-0.7,0.6c-0.2,0.3-0.8,1-1.5,0.4c-1.1-0.9-2.7-1.6-4.2-1.6
			c-2,0-6.6,2.1-6.6,7.1s3.5,6.4,5.8,7.6s3.6,1.7,3.6,3.9c0,1-1,1.3-2.1,1.3c-2.4,0-3.9-1.9-4.3-3.2c-0.1-0.5-0.2-0.5-0.7-0.5h-1.5
			c-0.4,0-0.5,0-0.5,1v6.5c0,0.5,0,0.5,1,0.5h1c0.3,0,0.3-0.1,0.7-0.6c0.2-0.3,0.8-1,1.5-0.4c1.1,0.9,2.9,1.6,4.3,1.6
			c2,0,6.7-2.1,6.7-7.1C253.4,301.7,250.8,299.8,248.2,298.5z"/>
		<path class="st1" d="M213.2,304.1H211c-0.7,0-0.7,0.1-0.7,0.9v2.4c0,0.9-0.1,1-0.7,1h-3.4c-1,0-1-0.1-1-0.7v-13.6c0-0.9,0-1,0.5-1
			h0.8c0.6,0,0.7-0.1,0.7-0.6v-2.7c0-0.8,0-0.9-0.7-0.9h-8.1c-1,0-1,0.1-1,0.8v2.8c0,0.6,0.1,0.6,0.7,0.6h0.6c0.6,0,0.6,0,0.6,0.9
			v13.7c0,0.6,0,0.6-0.5,0.6H198c-0.6,0-0.6,0.1-0.6,0.9v2.8c0,0.6,0.1,0.6,0.7,0.6h15.1c0.7,0,0.7,0,0.7-0.9v-6.8
			C213.9,304.1,213.9,304.1,213.2,304.1z"/>
	</g>
	<g>
		<g>
			<g>
				<g>
					<path class="st0" d="M111.2,286.4l1.7-4.3l0.7-55l-1.5-3.9h13.6l-1.6,3.8l-0.7,53.3l1.4,3.3l-1,0.2c-3.7,0.7-7.5,1.5-11.2,2.3
						L111.2,286.4z"/>
				</g>
			</g>
			<g>
				<g>
					<path class="st0" d="M126,283.3l1.7-4.1l0.7-52.3l-1.5-3.7h11.9l0.2,0.6c2.3,8.3,4.7,16.7,7.1,25l0.3-22l-1.5-3.6h13.7
						l-1.6,3.6l-0.5,48.6l1.5,3.2l-1.1,0.1c-3.4,0.4-6.8,0.8-10.1,1.2l-0.7,0.1l-0.2-0.7c-2.4-8.1-4.9-16.2-7.2-24.3l-0.3,22.6
						l1.5,3.2l-1.1,0.2c-3.7,0.6-7.5,1.2-11.2,1.9L126,283.3z"/>
				</g>
			</g>
			<g>
				<g>
					<path class="st0" d="M159.1,278.5l1.5-3.8l0.5-48.1l-1.4-3.4h25l5,3.6l-0.2,46.1l-0.3,0.2c-1.5,1.1-3,2.2-4.5,3.4l-0.2,0.2
						h-0.3c-7.9,0.3-15.9,0.9-23.8,1.7L159.1,278.5z M171.7,231.3l-0.3,37.8c2.5-0.2,4.9-0.3,7.4-0.4l0.2-37.5
						C176.6,231.3,174.2,231.3,171.7,231.3z"/>
				</g>
			</g>
			<g>
				<g>
					<path class="st0" d="M212.4,276.6h-1.3c-3.8-0.1-7.6-0.1-11.4-0.1h-1.3l1.6-3.5v-21.4c-2.8-8.3-5.5-16.7-8.2-25l-3.3-3.3h15.7
						l-1.1,2.5l2.2,9.7c0.7-3.2,1.4-6.5,2.1-9.7l-1.3-2.6H222l-3.3,3.3c-2.7,8.5-5.4,17-8.1,25.4l0.1,21.2L212.4,276.6z"/>
				</g>
			</g>
		</g>
		<g>
			<g>
				<g>
					<path class="st0" d="M70.1,297.6l1.4-5c-2.5-20.2-5-41-7.5-62.7c-0.6-1.8-1.2-3.8-1.8-5.8l-0.3-1h13.4l-1.1,3.4
						c1.1,10.4,2.1,20.6,3.2,30.6c1.2-10.2,2.4-20.4,3.6-30.4l-1.2-3.6h13.7l-1.3,3.5c1,9.5,2,18.8,3,28.1
						c1.2-9.6,2.5-19.1,3.7-28.5l-1.1-3.1h13.5l-0.4,1.1c-0.6,1.6-1.3,3.2-1.9,4.9c-2.9,18.6-5.8,37.4-8.5,55.9l1.4,3.3l-0.9,0.2
						c-3.7,0.9-7.4,1.9-11.1,3l-1.4,0.4l0.9-2.9c-1-9.6-2.1-19.3-3.1-29.1c-1.3,10.4-2.5,21-3.7,31.5l0.9,2l-0.9,0.3
						c-3.6,1.1-7.3,2.3-11,3.5L70.1,297.6z"/>
				</g>
			</g>
			<g>
				<g>
					<path class="st0" d="M256.2,280.4h-0.3c-6-0.9-12.1-1.6-18.1-2.2h-0.2l-0.2-0.2c-1.5-1.3-3-2.5-4.5-3.7l-0.3-0.2l-0.4-47.2
						l0.3-0.2c1.5-1.1,3-2.2,4.4-3.3l0.2-0.2h18.5l0.2,0.2c1.5,1.2,3,2.3,4.5,3.5l0.3,0.2l0.1,8.1l1.6,3.7l-1.3-0.1
						c-3.7-0.1-7.5-0.3-11.2-0.4h-1.2l1.5-3.4v-3.3c-2.5,0-5-0.1-7.4-0.1l0.4,38.8c2.5,0.2,5,0.5,7.5,0.8V268l-1.7-3.8l1.4,0.1
						c3.8,0.4,7.5,0.8,11.3,1.2l1.1,0.1l-1.5,3.3l0.1,8.2l-0.4,0.2c-1.5,1-3,1.9-4.5,2.8L256.2,280.4z"/>
				</g>
			</g>
			<g>
				<g>
					<path class="st0" d="M277.1,284l-1.5-0.3c-3.7-0.7-7.5-1.4-11.2-2l-1-0.2l1.5-3.2l-0.7-51.4l-1.6-3.7h13.6l-1.5,3.8l0.7,52.8
						L277.1,284z"/>
				</g>
			</g>
			<g>
				<g>
					<path class="st0" d="M298.8,288.7l-1.5-0.4c-3.7-0.9-7.5-1.8-11.1-2.6l-1-0.2l1.4-3.3l-0.6-49.7c-2.8-0.1-5.5-0.2-8.3-0.2h-0.9
						l1.3-9h26l1.5,9.9h-1c-2.7-0.1-5.4-0.2-8.1-0.3l0.6,51.4L298.8,288.7z"/>
				</g>
			</g>
			<g>
				<g>
					<path class="st0" d="M328.4,297.4l-1.5-0.5c-3.6-1.2-7.3-2.4-11-3.5l-0.8-0.2l1.3-3.6l-0.2-28.9c-2.7-11.1-5.6-22.5-8.5-33.6
						c-0.7-0.9-1.3-1.7-2-2.6l-1-1.3H320l-1,3.1c0.8,4.4,1.5,8.9,2.3,13.4c0.7-4.4,1.4-8.8,2.1-13.3l-1.2-3.2h15.4l-0.9,1.3
						c-0.7,0.9-1.3,1.9-2,2.8c-2.7,12.2-5.5,24.1-8.1,35.4l0.1,29.6L328.4,297.4z"/>
				</g>
			</g>
		</g>
	</g>
	<g>
		<g>
			<g>
				<g>
					<path class="st1" d="M122.5,280.5c0.4,0.8,0.7,1.7,1.1,2.5c-3.7,0.7-7.5,1.5-11.2,2.3c0.4-1,0.8-2.1,1.2-3.1
						c0.2-18.4,0.5-36.9,0.7-55.3c-0.4-1-0.7-1.9-1.1-2.9c3.7,0,7.5,0,11.2,0c-0.4,0.9-0.8,1.9-1.2,2.8
						C123,244.7,122.8,262.6,122.5,280.5z"/>
				</g>
			</g>
			<g>
				<g>
					<path class="st1" d="M137.4,277.9c0.4,0.8,0.7,1.6,1.1,2.4c-3.8,0.6-7.5,1.2-11.3,1.9c0.4-1,0.8-1.9,1.2-2.9
						c0.2-17.5,0.5-35.1,0.7-52.6c-0.4-0.9-0.7-1.8-1.1-2.8c3.4,0,6.7,0,10.1,0c2.9,10.3,5.8,20.3,8.7,30.1
						c0.1-9.2,0.2-18.3,0.3-27.5c-0.4-0.9-0.7-1.8-1.1-2.6c3.7,0,7.5,0,11.2,0c-0.4,0.9-0.8,1.7-1.2,2.6c-0.2,16.3-0.4,32.7-0.5,49
						c0.4,0.8,0.8,1.6,1.1,2.4c-3.4,0.4-6.8,0.8-10.2,1.2c-2.9-9.6-5.8-19.4-8.7-29.5C137.7,259.1,137.6,268.5,137.4,277.9z"/>
				</g>
			</g>
			<g>
				<g>
					<path class="st1" d="M161.9,226.5c-0.3-0.8-0.7-1.6-1-2.5c7.9,0,15.7,0,23.6,0c1.5,1.1,3,2.1,4.5,3.2
						c-0.1,15.1-0.1,30.2-0.2,45.3c-1.5,1.1-3,2.2-4.5,3.4c-8,0.3-15.9,0.9-23.9,1.7c0.4-0.9,0.7-1.8,1.1-2.7
						C161.6,258.8,161.7,242.6,161.9,226.5z M170.9,230.6c-0.1,13.2-0.2,26.3-0.3,39.5c3-0.2,6-0.4,9-0.5c0.1-13,0.2-26,0.2-39.1
						C176.9,230.5,173.9,230.5,170.9,230.6z"/>
				</g>
			</g>
			<g>
				<g>
					<path class="st1" d="M209.9,251.7c0,7.2,0,14.3,0.1,21.5c0.4,0.8,0.8,1.7,1.2,2.5c-3.8-0.1-7.6-0.1-11.4-0.1
						c0.4-0.8,0.8-1.6,1.2-2.5c0-7.2,0-14.5,0-21.7c-2.8-8.4-5.6-16.9-8.3-25.3c-0.7-0.7-1.4-1.4-2.1-2.1c4.2,0,8.4,0,12.6,0
						c-0.2,0.5-0.5,1.1-0.7,1.6c1,4.5,2,9,3,13.5c1-4.5,2-9,3-13.5c-0.3-0.5-0.6-1.1-0.8-1.6c4.2,0,8.4,0,12.7,0
						c-0.7,0.7-1.4,1.4-2.1,2C215.4,234.6,212.7,243.2,209.9,251.7z"/>
				</g>
			</g>
		</g>
		<g>
			<g>
				<g>
					<path class="st1" d="M108.1,228.9c-2.9,18.2-5.7,36.9-8.5,56.2c0.4,0.9,0.7,1.8,1.1,2.7c-3.7,0.9-7.4,1.9-11.1,3
						c0.2-0.6,0.4-1.1,0.5-1.7c-1.3-11.9-2.6-24-3.9-36.3c-1.5,12.7-3.1,25.6-4.6,38.7c0.2,0.5,0.4,0.9,0.6,1.4
						c-3.7,1.1-7.3,2.3-11,3.5c0.3-1.2,0.7-2.5,1-3.7c-2.5-20.2-5-41.1-7.5-62.8c-0.6-2-1.2-3.9-1.9-5.9c3.7,0,7.5,0,11.2,0
						c-0.3,0.8-0.6,1.7-0.8,2.5c1.3,12.9,2.6,25.6,3.9,38.1c1.5-12.9,3-25.5,4.5-37.9c-0.3-0.9-0.6-1.8-0.9-2.7c3.8,0,7.6,0,11.4,0
						c-0.3,0.9-0.6,1.7-1,2.6c1.3,11.9,2.5,23.5,3.8,35c1.5-12,3.1-23.8,4.6-35.4c-0.3-0.7-0.5-1.5-0.8-2.2c3.7,0,7.5,0,11.2,0
						C109.4,225.6,108.8,227.2,108.1,228.9z"/>
				</g>
			</g>
			<g>
				<g>
					<path class="st1" d="M237.9,277.4c-1.5-1.3-3-2.5-4.6-3.7c-0.1-15.5-0.3-30.9-0.4-46.4c1.5-1.1,3-2.2,4.4-3.3c6,0,12,0,18,0
						c1.5,1.2,3,2.3,4.5,3.5c0,2.6,0.1,5.3,0.1,7.9c0.4,0.9,0.8,1.8,1.2,2.6c-3.7-0.1-7.5-0.3-11.2-0.4c0.4-0.8,0.7-1.7,1.1-2.5
						c0-1.4,0-2.9-0.1-4.3c-3,0-6-0.1-9-0.1c0.1,13.5,0.3,26.9,0.4,40.4c3,0.3,6.1,0.6,9.1,0.9c0-1.4,0-2.9-0.1-4.3
						c-0.4-0.9-0.8-1.8-1.2-2.7c3.8,0.4,7.5,0.8,11.3,1.2c-0.4,0.8-0.7,1.6-1.1,2.5c0,2.7,0.1,5.3,0.1,8c-1.5,1-3,1.9-4.5,2.8
						C250,278.7,243.9,278,237.9,277.4z"/>
				</g>
			</g>
			<g>
				<g>
					<path class="st1" d="M274.7,280c0.4,1,0.8,2,1.2,2.9c-3.7-0.7-7.5-1.4-11.3-2c0.4-0.8,0.7-1.6,1.1-2.5
						c-0.2-17.2-0.5-34.5-0.7-51.7c-0.4-0.9-0.8-1.8-1.2-2.7c3.7,0,7.5,0,11.2,0c-0.4,0.9-0.7,1.9-1.1,2.8
						C274.2,244.5,274.4,262.2,274.7,280z"/>
				</g>
			</g>
			<g>
				<g>
					<path class="st1" d="M303.5,224c0.4,2.7,0.8,5.5,1.2,8.3c-3-0.1-5.9-0.2-8.9-0.3c0.2,17.5,0.4,34.9,0.6,52.4
						c0.4,1.1,0.8,2.1,1.2,3.2c-3.7-0.9-7.4-1.8-11.2-2.6c0.4-0.9,0.7-1.7,1.1-2.6c-0.2-16.9-0.4-33.8-0.6-50.6c-3-0.1-6-0.2-9-0.2
						c0.3-2.5,0.7-5,1-7.5C287.1,224,295.3,224,303.5,224z"/>
				</g>
			</g>
			<g>
				<g>
					<path class="st1" d="M326,262.6c0,9.9,0.1,19.9,0.1,29.8c0.4,1.3,0.8,2.5,1.1,3.8c-3.6-1.2-7.3-2.4-11-3.5c0.4-1,0.7-2,1.1-3
						c-0.1-9.7-0.1-19.4-0.2-29.1c-2.8-11.7-5.7-23-8.5-34c-0.7-0.9-1.4-1.8-2.1-2.7c4.2,0,8.4,0,12.6,0c-0.2,0.7-0.5,1.5-0.7,2.2
						c1,6.1,2.1,12.2,3.1,18.5c1-6.1,1.9-12.2,2.9-18.4c-0.3-0.8-0.6-1.5-0.8-2.3c4.2,0,8.4,0,12.7,0c-0.7,1-1.4,2-2.1,2.9
						C331.4,239.3,328.7,251.1,326,262.6z"/>
				</g>
			</g>
		</g>
	</g>
	<g>
		<path class="st2" d="M265.6,165.9c-8.8-0.2-14.2,4.9-14.2,4.9s0.3-6.1,9-9.5l0.8-0.2c0,0,3.1-13.5-1.4-22.9
			c-1.4-3-4.6-4.1-7.9-4.5c-2.3-0.3-4.9-0.3-7.7,0.1c-1.5,0.1-3.3,0.3-5.3,0.9c-2.7,0.9-4.8,1.9-6.6,2.6c-7.7,3-18.8,5.9-32.4,5.9
			l0,0c-0.2,0-0.3,0-0.3,0c-13.7,0-24.8-3.7-32.4-6.7c-2.3-0.9-5.3-2.4-8.4-2.9c-1-0.2-2-0.4-2.8-0.4c-3.3-0.5-5.5-0.5-8.9-0.2
			c-2.7,0.3-5.4,1.1-6.6,3.6c-2.9,5.6-3.3,14.1-3,18.4c0,3.7,0.2,6,0.2,6c8.9,3.3,10.1,10,10.1,10s-5.4-5.1-14.2-4.9
			c-8.8,0.2-16.3,11.1-17,19.3c0,0,3.9-11.7,13.5-11.3c9.7,0.4,14.7,11.2,15.8,13.1c1.2,1.9,8.8,15.1,12.8,18.5s12.2,10.3,23.1,10
			c10.9-0.4,14.8-12.8,14.7-18.8c0,0-9.6,0.2-20.2,3.3c0,0,9.3-5.5,20.4-7.9l-0.1-5.9c-3.1,0-19-0.6-34.3-10.2c0,0,14.7,5,34.2,5
			l-0.1-6.6c0-0.1,0-0.2-0.1-0.2c0,0-20.7-1.2-37.7-17.1l1.2,0.6c6.4,3.6,22.6,11.1,39.7,11.1h0.4c17.2,0,33.2-7.3,39.5-10.9
			l1.4-0.8c-15.7,14.8-35.2,16.9-38.1,17.2v6.9c19.2-0.1,34.4-5,34.4-5c-13.8,9.7-31.3,10.2-34.4,10.2v5.9
			c11.1,2.4,20.4,7.9,20.4,7.9c-9.8-3.1-20.2-3.3-20.2-3.3c-0.1,5.9,3.7,18.4,14.7,18.8c10.9,0.4,19.2-6.5,23.1-10
			c4-3.4,11.6-16.6,12.8-18.5s6.2-12.7,15.8-13.1c9.7-0.4,13.5,11.3,13.5,11.3C281.9,176.9,274.4,166.1,265.6,165.9z"/>
	</g>
</g>
</svg>
